<?xml version="1.0" standalone="no"?>
<!DOCTYPE svg PUBLIC "-//W3C//DTD SVG 20010904//EN"
 "http://www.w3.org/TR/2001/REC-SVG-20010904/DTD/svg10.dtd">
<svg version="1.0" xmlns="http://www.w3.org/2000/svg"
 width="227.000000pt" height="227.000000pt" viewBox="0 0 227.000000 227.000000"
 preserveAspectRatio="xMidYMid meet">
<metadata>
Created by potrace 1.14, written by Peter Selinger 2001-2017
</metadata>
<g transform="translate(0.000000,227.000000) scale(0.100000,-0.100000)"
fill="#000000" stroke="none">
<path d="M70 1184 l0 -1044 40 0 c28 0 42 -5 49 -19 6 -10 7 -21 4 -25 -9 -8
-79 -8 1031 -9 689 -2 1000 1 1003 8 8 21 8 165 0 165 -5 0 -5 5 -2 11 10 15
10 132 1 147 -4 6 -4 17 0 24 10 16 12 78 3 84 -4 2 -4 17 0 32 8 33 7 84 -2
99 -4 6 -4 14 1 17 9 6 9 47 -2 64 -4 6 -3 20 2 29 7 16 9 68 2 83 -1 3 -2 9
0 15 6 32 5 107 -2 111 -5 3 -6 9 -3 14 9 15 13 70 4 70 -5 0 -6 6 -3 14 9 22
10 146 2 146 -4 0 -4 10 1 22 4 13 5 35 1 50 -5 14 -6 29 -3 32 9 9 10 76 2
82 -4 2 -4 17 0 32 9 34 7 84 -3 100 -4 7 -4 17 0 24 10 16 12 78 3 84 -4 2
-4 17 0 32 9 34 7 84 -3 100 -4 7 -4 17 0 24 10 16 12 78 3 84 -5 2 -6 11 -3
18 9 23 11 116 2 116 -4 0 -4 9 0 21 15 40 2 77 -32 89 -17 7 -26 14 -21 16 6
2 9 22 7 43 l-4 38 -1039 0 -1039 0 0 -1043z m2015 986 c6 -1 2 -4 -7 -8 -10
-4 -439 -6 -955 -5 -1072 2 -996 1 -990 11 4 5 1913 8 1952 2z"/>
</g>
</svg>
